<svg xmlns="http://www.w3.org/2000/svg" viewBox="0 0 220.67 274.28"><defs><style>.cls-1,.cls-7{fill:#87d3df;}.cls-1,.cls-11,.cls-12,.cls-19,.cls-2,.cls-20,.cls-3,.cls-6,.cls-8,.cls-9{stroke:#231f20;stroke-miterlimit:10;}.cls-1,.cls-11,.cls-12,.cls-19,.cls-2,.cls-20,.cls-3,.cls-8,.cls-9{stroke-width:3px;}.cls-2{fill:none;}.cls-3{fill:#dcc07e;}.cls-4{fill:#ffdf9f;}.cls-5{fill:#a2dce8;}.cls-12,.cls-6{fill:#f1f2f2;}.cls-6{stroke-width:2px;}.cls-10,.cls-8{fill:#fff;}.cls-9{fill:#d3d3d3;}.cls-13,.cls-20{fill:#e2e2e2;}.cls-14{fill:#f26722;}.cls-15{fill:#ed2224;}.cls-16{fill:#059967;}.cls-17{fill:#4169b2;}.cls-18{fill:#2b3187;}.cls-19{fill:#ed1c24;}.cls-21{fill:#231f20;}</style></defs><title>Asset 3</title><g id="Layer_2" data-name="Layer 2"><g id="Layer_1-2" data-name="Layer 1"><path class="cls-1" d="M44.82,16.27a10.51,10.51,0,0,0,.78,3.25c2.95,7.27,2.49,12.19-1.38,14.23-4.37,2.3-11.42-.51-15.74-8.73s-4.3-16.75.06-19C40.34-.24,44.59,12.73,44.82,16.27Z"/><path class="cls-2" d="M43.11,29.9c0-4.26-4.23-5.7-9.46-5.7"/><path class="cls-2" d="M38.36,18.6c0,4.2,1,5.6,2.25,5.6"/><ellipse class="cls-1" cx="164.06" cy="15.25" rx="16.83" ry="8.93" transform="translate(41.23 125.07) rotate(-47.11)"/><path class="cls-2" d="M161,22.78c0-4.25,4-7.7,9-7.7"/><path class="cls-2" d="M165.5,9.48c0,4.2-1,7.6-2.15,7.6"/><ellipse class="cls-3" cx="52.17" cy="256.32" rx="26.01" ry="9.66" transform="translate(-102.99 45.73) rotate(-24.88)"/><path class="cls-4" d="M56.18,263.24c-13.64,5.27-10,5.56-16.33.66-4.22-3.26-.72-6,12.32-12s9.46-9.37,14.06-6.66C74.52,250.06,69.58,258.07,56.18,263.24Z"/><ellipse class="cls-3" cx="150.12" cy="257.32" rx="9.66" ry="26.01" transform="translate(-147.78 258.66) rotate(-60)"/><path class="cls-4" d="M150.12,262.33c-12.44-7.18-26.93-14.4-24.26-19s12.69-2.86,25.13,4.32,22.59,17.07,19.92,21.69S162.56,269.51,150.12,262.33Z"/><path class="cls-1" d="M95.89,7.25C4.47,11.76,8.68,91.57,21.67,133.42c4.22,13.63-9.33,31.05-11.31,46.83C4,231.14,41.49,248.34,73.15,255.42c.9.2,49.09,2.44,75.21,1.77,46.06-1.18,47.85-34.12,44.31-63.06-6.65-54.3-3.41-47.62-3.82-108.76C188.61,50.05,174,3.4,95.89,7.25Z"/><path class="cls-5" d="M99.41,13.5C13.09,17.87,17.07,95.37,29.33,136c4,13.23-8.81,30.15-10.68,45.47-6,49.42,33.52,63.71,59.29,73,.82.3,46.35,2.38,71,1.72,43.49-1.14,45.18-33.13,41.84-61.22-6.28-52.74-3.22-46.24-3.61-105.62C187,55.06,173.16,9.76,99.41,13.5Z"/><path class="cls-6" d="M104.27,108s-6.14,2.36-7.72,1.21c-2.34-1.71-1.79-11.46-1.79-11.46l7.71-1.21Z"/><path class="cls-6" d="M112.05,106.77c-1,1.69-7.72,1.21-7.72,1.21l-1.79-11.46,7.72-1.21S113.16,104.85,112.05,106.77Z"/><path class="cls-7" d="M23.78,87.36c-9.07-10-4-16.08,1.47-35.07C31.69,30.05,69,25,73.34,42.63c.33,1.35-27.36-5-28.84-.55S24.71,88.4,23.78,87.36Z"/><path class="cls-7" d="M116.81,114.91c0,1.39-6.69,8.12-11.34,8.12s-10.29-4.33-10.29-5.72,5.63.68,10.29.68S116.81,113.52,116.81,114.91Z"/><path class="cls-7" d="M117.12,83.35c-9.06-10.06-9.45-16.24-4-35.23,6.45-22.24,47.27-28.26,50.18-18.41.39,1.33-24,3.94-25.51,8.35S118.05,84.38,117.12,83.35Z"/><circle class="cls-8" cx="150.12" cy="64.9" r="35.88"/><circle class="cls-9" cx="150.12" cy="64.9" r="35.88"/><ellipse class="cls-10" cx="151.95" cy="64.24" rx="32.04" ry="33.22"/><path class="cls-3" d="M119.2,92c-2,6.93-10.16,4.9-16.84,4.9s-13.93,6.82-16.27,0c-4.24-12.36,9.58-18.88,16.27-18.88C108.28,78.06,123.43,77.27,119.2,92Z"/><path class="cls-4" d="M117.57,91c-1.59,5.41-8.14,3.82-13.49,3.82s-11.16,5.32-13,0c-3.4-9.64,7.67-14.73,13-14.73C108.82,80.13,121,79.51,117.57,91Z"/><path class="cls-11" d="M106,82.37c0,2.56-3.31,4.64-4.64,4.64,0,0-4.65-2.08-4.65-4.64s2.08-2.65,4.65-2.65S106,79.8,106,82.37Z"/><circle class="cls-9" cx="52.17" cy="71.59" r="35.88"/><ellipse class="cls-10" cx="54" cy="70.93" rx="32.04" ry="33.22"/><circle class="cls-11" cx="41.65" cy="55.53" r="3.24"/><circle class="cls-11" cx="138.22" cy="43.59" r="2.69"/><path class="cls-12" d="M193.12,231.77c-30.21,27.92-164.51,3.61-164.51,3.61S1.82,214.27,10.36,180.25c5.56-22.14,10.81-44.69,10.81-44.69l83.73,5.57,82.68-5.51s6.54,37.31,7.72,48.55C196.65,197,201.87,223.69,193.12,231.77Z"/><path class="cls-13" d="M63,238.58c-10.87,0-33.88-4.86-33.88-4.86s-27.66-22.3-16.8-56.47a377.27,377.27,0,0,0,10.46-41l32.8,5.31-3.45,7.62s-11.7,25.25-10.52,36.48C43,198.48,75,238.54,63,238.58Z"/><path class="cls-14" d="M72.7,160.58c10.68.65,44.2-2.82,62.1-1.15,2.71.26.2,10.91.2,10.91l-29.15.54-.72.12-.44-.1-31.79.59S70,160.41,72.7,160.58Z"/><polygon class="cls-10" points="72.9 171.49 104.44 170.91 105.16 171 106.35 170.87 135.07 170.34 135.09 171.09 72.92 172.24 72.9 171.49"/><path class="cls-15" d="M72.92,172.24c10.73-1,62.09-1.15,62.09-1.15s1.4,5.95.14,7.26c-10.78,11.18-62.1,1.15-62.1,1.15S71.11,172.4,72.92,172.24Z"/><rect class="cls-10" x="73.05" y="178.92" width="62.18" height="0.75" transform="translate(-3.29 1.95) rotate(-1.06)"/><path class="cls-16" d="M73.06,180.24l62.1-1.14s1.39,6,.13,7.26c-10.77,11.18-52.11,13-62.09,1.14C72,186.11,73.06,180.24,73.06,180.24Z"/><rect class="cls-10" x="73.2" y="186.93" width="62.18" height="0.75" transform="translate(-3.44 1.96) rotate(-1.06)"/><rect class="cls-17" x="73.27" y="187.68" width="62.11" height="7.26" transform="translate(-3.51 1.96) rotate(-1.06)"/><rect class="cls-10" x="73.35" y="194.94" width="62.18" height="0.75" transform="translate(-3.58 1.96) rotate(-1.06)"/><path class="cls-18" d="M73.36,196.26c11.94.17,62.1-1.15,62.1-1.15l.25,13.62s-47.67,1.92-62.1,1.15C70.21,209.7,73.36,196.26,73.36,196.26Z"/><path class="cls-10" d="M96.29,203.53a11,11,0,0,0,1.26-1.92,4.29,4.29,0,0,1,1.15-1.93,5.87,5.87,0,0,1,2.55-1.25c1-.17,2.57-.15,3-.27a1.78,1.78,0,0,0,1.34-1,7.59,7.59,0,0,0,.17-2.41c0-.76-.77-1.37-1.2-1.74s-1.57-.9-2.06-1.92-1.81-1.84-2.2-2.34a3.1,3.1,0,0,1-.66-1.06c-.11-.37.25-.23.38-.15s.13.28.16.32a1.16,1.16,0,0,0,.5.19c.07,0,0-.47.09-.66s.48,0,.47.21a1.9,1.9,0,0,0,.19.78c.1.13.41.52.45.42s-.18-.41,0-.4a.67.67,0,0,1,.61.39c.14.28.2.57.24.62s.43.2.53,0,0-.8.11-.8.44.06,1.11,1.18a4.67,4.67,0,0,0,2.36,1.7c.23.07,2.53,1,3,1.15a19,19,0,0,1,1.85.69c.53.24,1.86,1.32,2.13,1.48a22.14,22.14,0,0,0,3,.53c.2,0,.23.31.35.56a6.53,6.53,0,0,1,.34,1.53c-.06,0-.34,0-1-.45a4.15,4.15,0,0,1-1.06-1.24c0-.08-.11.1,0,.37s.09.59,0,.54a4.88,4.88,0,0,1-1.2-1c-.4-.52-.93.59-1.14,1.42s-.16,1.54.73,2a3.68,3.68,0,0,1,1.8,1.62,9.82,9.82,0,0,1,.54,2.88Zm11.13-7.25a6.14,6.14,0,0,0,.43-1.83,1.89,1.89,0,0,1,1.91-.62,2.1,2.1,0,0,1,1.89,1.18,3.07,3.07,0,0,1,0,2.22c-.28.43-.13,1.2-1.9,1.7s-3.32-.77-2.32-2.66Z"/><path class="cls-10" d="M117.63,196.27a1.11,1.11,0,0,1,.37.73,1.71,1.71,0,0,0,.4,1c.17.15.52-.88.88-1.11a8.67,8.67,0,0,1,2.19-.94,13.9,13.9,0,0,0,2.23-.48c.46-.23.37-1-.35-1.44s-1.14-.16-1.37-.23-.5-1-1-1.22-.67,0-.65.19.25,1,0,1-.47-.17-.91-.18-.38.26-.15.42.49.36.26.43-1,.3-.48.37.92.52.85.64-.57.23-.52.38.51.42.1.44a1.24,1.24,0,0,1-.65-.11c-.12-.06-1.11-.12-1.11.1Z"/><path class="cls-10" d="M116.7,192.25s-.11-.35.31-.34.47.18.55.34a7.43,7.43,0,0,1,.6,1.68c0,.36-.14.46-.49.24S116.93,192.74,116.7,192.25Z"/><path class="cls-10" d="M114.55,191.68s0-.25.41-.29.77.6.84.71a3.52,3.52,0,0,1,.49,1.26c0,.45-.24.36-.38.35a3.56,3.56,0,0,1-.87-1,2.64,2.64,0,0,1-.49-1Z"/><path class="cls-10" d="M112.87,191.38s-.08-.58.32-.61a.52.52,0,0,1,.6.39c0,.17.46,1.54.47,1.74a.28.28,0,0,1-.35.31c-.26,0-.76-.79-1-1.83Z"/><path class="cls-10" d="M112.19,192.18a.3.3,0,0,1-.1.57c-.22,0-.49,0-1-.78s-1-1.73-.3-1.92a1.29,1.29,0,0,1,.38-.06C111.62,190.1,111.67,191.83,112.19,192.18Z"/><path class="cls-10" d="M108.35,189.68s.25-.35.57-.18.53.77.64,1a8.79,8.79,0,0,0,.56,1.06.25.25,0,0,1-.24.41c-.26,0-.91-.89-1.11-1.29S108.31,190,108.35,189.68Z"/><path class="cls-10" d="M106.74,189.13a2.19,2.19,0,0,1,.78.56c.27.36.74,1.23.65,1.38s-.44.07-.69,0a2.86,2.86,0,0,1-.89-1.36c-.08-.38-.11-.59.15-.55Z"/><path class="cls-10" d="M103.91,187.57s1.13,1.57,1.53,1.56a.56.56,0,0,0,.43-.87c-.25-.37-.22-.71.25-.64a18.43,18.43,0,0,1,2.24.16c.17.13.88.31,1.1,0s.81-.05.94.17a3.16,3.16,0,0,0,1.4.6c.28,0,1.52,1.09,2.35,1.34a15.5,15.5,0,0,1,1.91.85c.38.14,1,.09.81-.69a13.28,13.28,0,0,0-1.21-2.72,11.36,11.36,0,0,0-4.54-4.13,27.13,27.13,0,0,0-7.57-1.87c-1.92-.15-3.68.2-3.66,2s.56,2,1.34,2.4,1.45.38,1.42.69,0,.3-.24.47.23.18.41.2a3.36,3.36,0,0,1,.62.05,1,1,0,0,1,.47.38Z"/><path class="cls-10" d="M118.46,189.52a10.63,10.63,0,0,0,1.55,2c.41.18.29-.85.3-1.55a11.45,11.45,0,0,0-1-3.37,15.77,15.77,0,0,0-2.53-3.63c-1.46-1.53-4.35-2.41-6.41-3.23a9.33,9.33,0,0,0-3.31-.37c-.28,0-1.54.12-1.26-1.09a16.8,16.8,0,0,1,2.83-5,7.84,7.84,0,0,0,1.75-2.88c.1-.53.16-3.46.16-3.46a1.42,1.42,0,0,0,.17-.64.41.41,0,0,1-.27.14c-.18,0,.22-.5.19-.73,0,0-.22.3-.34.31s.12-.4,0-.67a.55.55,0,0,1-.18.27,1.18,1.18,0,0,0-.07-.71.71.71,0,0,1-.16.4,1.75,1.75,0,0,0-.11-1s0,.6-.2.72a1.43,1.43,0,0,0-.14-.81s0,.36-.53.35a22.64,22.64,0,0,0-5.25,1.1,3.12,3.12,0,0,0-1.74,3.14s-.06.41.18.3.58-.11.73-.22.28-1.09,1-1.34a2.68,2.68,0,0,1,1.54,0c.08,0-.54.4-.55.53s.45.18.65.16,0,.19.13.22.51-.15.65,0a6.56,6.56,0,0,1,1.16,1.69c0,.32.55.45.79.06a1.8,1.8,0,0,0,.09-1.37c-.12-.57-.23-1.25-.9-1.42s-.43-.8-.08-1a1.33,1.33,0,0,1,1.56.31c2,2.7-1.38,6-2.41,8a15.14,15.14,0,0,0-1.33,3.34c-.23.87-.79,1.8-.09,2s2,.72,2.56.8a14.09,14.09,0,0,1,10.18,7.7c.28.56.6,1.12.6,1.12Z"/><path class="cls-10" d="M104.31,169.67a3.88,3.88,0,0,0-.8-.21c-2.19-.21-2,1.46-2.76,3.51s-1.4,4.24-1.65,5.19a27.84,27.84,0,0,0-.89,3.42,15.5,15.5,0,0,0-.15,3.34c.09.69.44.77.56.76s-.05-.31.27-.52.13-.42.13-.8a6.32,6.32,0,0,1,.39-2.58,8.58,8.58,0,0,0,1.32-2.75,15.09,15.09,0,0,1,1.16-2.91c.32-.81.67-2.24,1-2.7s.62-1.77,1-1.78.13.52,0,.9-1.16,2.78-1.31,3c-.4.68-1.34,2.7-1.1,3.51.08.26.76.32,1-.25s1.41-2.76,1.54-3,1.59-3.35,1.9-3.94.82-1.13.77-1.57a1.74,1.74,0,0,0-.77-1.34c-.88-.52-1.51.64-1.53.64Zm.28.92a.44.44,0,0,0,.41-.15c.15-.2.48-.73.63-.76s.32.49.25.69S105.05,171.36,104.59,170.59Z"/><path class="cls-10" d="M103.81,168.22s.1.13.19,0a.3.3,0,0,1,.34,0c.11,0,.37.19.21.34a.78.78,0,0,1-.52.18C103.9,168.74,103.37,168.31,103.81,168.22Z"/><path class="cls-19" d="M187.58,135.62c-.7,3.85-30.65,10.31-73.48,10.31s-91.34-8.75-92.43-12.51c-1.14-3.92-5-9.36-3.22-10.67,0,0,58.45,9.83,95.77,10.67,33.75.76,64.6-10.39,73.52-6.56C190.14,127.89,188.17,132.38,187.58,135.62Z"/><path class="cls-2" d="M94.65,118.6c2.72,4.52,12.4,3.67,21.63-1.9"/><path class="cls-3" d="M19.44,195.78c-1.54,14.28-5.08,14.4-10.39,13.83S.69,197,2.22,182.72s7.08-25.4,12.39-24.83S21,181.5,19.44,195.78Z"/><path class="cls-4" d="M17.8,195.24c-1.54,14.28-4.68,13.53-7.74,13.2S5.83,197.29,7.37,183s5.26-25.6,8.32-25.27S19.33,181,17.8,195.24Z"/><path class="cls-20" d="M24.18,173.12c-2.11,13.73-8.95,11-15,10s-9.09.32-7-13.42S10.91,145.62,17,146.55,26.28,159.38,24.18,173.12Z"/><path class="cls-3" d="M196.45,136.32c4.49-13.64,9.24-20.35,14.31-18.68,5.89,1.94,7.38,8.48,1,27.73-4.49,13.64-12.24,23.35-17.31,21.68S192,150,196.45,136.32Z"/><path class="cls-4" d="M200,141.36c7.92-9,5.77-22.06,10.84-20.39,5.88,1.94,4.7,10.62-2.89,29.41-5.63,13.91-6.23,23.35-11.3,21.68S190.49,152.13,200,141.36Z"/><path class="cls-12" d="M187.12,150.15c6.94-12,12.29-7.24,17.85-4.25s8.89,2.87,2.29,15.11c-3.12,5.81-8.41,11.66-13.16,15.94-5.25,4.73-9.84,7.53-10.11,6.2"/><path class="cls-21" d="M215.86,113.43a2.53,2.53,0,0,1,1.2.29,3.43,3.43,0,0,1,.87.62,3.29,3.29,0,0,1,.59.89,2.68,2.68,0,0,1,.26,1.21l-.08.07L217.21,115l-1.43-1.54Z"/><path class="cls-21" d="M217.75,111.33a2.66,2.66,0,0,1,1.21.29,3.21,3.21,0,0,1,.86.62,3.48,3.48,0,0,1,.6.89,2.71,2.71,0,0,1,.25,1.21l-.07.07-1.5-1.47-1.42-1.54Z"/><path class="cls-21" d="M201.51,114.23a2.62,2.62,0,0,1,.41-1.17,3.38,3.38,0,0,1,.7-.8,3.53,3.53,0,0,1,.94-.51,2.66,2.66,0,0,1,1.23-.13l.06.07L203.24,113l-1.67,1.27Z"/><path class="cls-21" d="M199.6,112.14A2.74,2.74,0,0,1,200,111a3.38,3.38,0,0,1,.7-.8,3.69,3.69,0,0,1,.94-.51,2.66,2.66,0,0,1,1.23-.13l.07.07L201.34,111l-1.67,1.27Z"/><path class="cls-21" d="M189,219.26a28,28,0,0,1-1.79,5.66,18.67,18.67,0,0,1-1.43,2.67,7,7,0,0,1-1,1.29,6,6,0,0,1-1.4.92,17.15,17.15,0,0,1-2.83,1.12,27,27,0,0,1-2.87.76,38.46,38.46,0,0,1-5.84.87l0-.1c1.9-.43,3.79-.92,5.65-1.47a33.32,33.32,0,0,0,5.45-2,5.51,5.51,0,0,0,1.19-.8,6.47,6.47,0,0,0,.92-1.1,24.29,24.29,0,0,0,1.48-2.51c.9-1.73,1.7-3.51,2.44-5.3Z"/></g></g></svg>